<?xml version="1.0" encoding="utf-8"?><!-- Uploaded to: SVG Repo, www.svgrepo.com, Generator: SVG Repo Mixer Tools -->
<svg width="800px" height="800px" viewBox="0 0 125 125" fill="none" xmlns="http://www.w3.org/2000/svg">
<rect x="14" y="14" width="97" height="97" fill="white"/>
<path d="M96 55.5C96 58.7532 94.9967 61.661 93.4214 63.7338C91.8466 65.8058 89.7437 67 87.5 67C85.2563 67 83.1534 65.8058 81.5786 63.7338C80.0033 61.661 79 58.7532 79 55.5C79 52.2468 80.0033 49.339 81.5786 47.2662C83.1534 45.1942 85.2563 44 87.5 44C89.7437 44 91.8466 45.1942 93.4214 47.2662C94.9967 49.339 96 52.2468 96 55.5Z" fill="url(#paint0_linear)" stroke="#3F3F3F" stroke-width="2" stroke-linecap="round" stroke-linejoin="round"/>
<path opacity="0.89" d="M103 78C103 73.0294 96.0604 69 87.5 69C78.9396 69 72 73.0294 72 78" stroke="#272727" stroke-width="3" stroke-linecap="round" stroke-linejoin="round"/>
<path d="M46 55.5C46 58.7532 44.9967 61.661 43.4214 63.7338C41.8466 65.8058 39.7437 67 37.5 67C35.2563 67 33.1534 65.8058 31.5786 63.7338C30.0033 61.661 29 58.7532 29 55.5C29 52.2468 30.0033 49.339 31.5786 47.2662C33.1534 45.1942 35.2563 44 37.5 44C39.7437 44 41.8466 45.1942 43.4214 47.2662C44.9967 49.339 46 52.2468 46 55.5Z" fill="url(#paint1_linear)" stroke="#3F3F3F" stroke-width="2" stroke-linecap="round" stroke-linejoin="round"/>
<path opacity="0.89" d="M53 78C53 73.0294 46.0604 69 37.5 69C28.9396 69 22 73.0294 22 78" stroke="#272727" stroke-width="3" stroke-linecap="round" stroke-linejoin="round"/>
<path d="M75 57.5C75 62.4195 73.5435 66.8328 71.2382 69.992C68.9322 73.152 65.8306 75 62.5 75C59.1694 75 56.0678 73.152 53.7618 69.992C51.4565 66.8328 50 62.4195 50 57.5C50 52.5805 51.4565 48.1672 53.7618 45.008C56.0678 41.848 59.1694 40 62.5 40C65.8306 40 68.9322 41.848 71.2382 45.008C73.5435 48.1672 75 52.5805 75 57.5Z" fill="url(#paint2_linear)" stroke="#3F3F3F" stroke-width="2" stroke-linecap="round" stroke-linejoin="round"/>
<path opacity="0.89" d="M84 89C84 82.9249 73.9264 78 61.5 78C49.0736 78 39 82.9249 39 89" stroke="#272727" stroke-width="3" stroke-linecap="round" stroke-linejoin="round"/>
<defs>
<linearGradient id="paint0_linear" x1="92.25" y1="55.5" x2="78.5038" y2="74.3457" gradientUnits="userSpaceOnUse">
<stop stop-color="#34ECE1" stop-opacity="0"/>
<stop offset="1" stop-color="#34F0E5"/>
</linearGradient>
<linearGradient id="paint1_linear" x1="42.25" y1="55.5" x2="28.5038" y2="74.3457" gradientUnits="userSpaceOnUse">
<stop stop-color="#34ECE1" stop-opacity="0"/>
<stop offset="1" stop-color="#34F0E5"/>
</linearGradient>
<linearGradient id="paint2_linear" x1="69.25" y1="57.5" x2="48.667" y2="84.5949" gradientUnits="userSpaceOnUse">
<stop stop-color="#34ECE1" stop-opacity="0"/>
<stop offset="1" stop-color="#34F0E5"/>
</linearGradient>
</defs>
</svg>