<svg xmlns="http://www.w3.org/2000/svg" xml:space="preserve" width="655.359" height="655.359" fill-rule="evenodd" clip-rule="evenodd" image-rendering="optimizeQuality" shape-rendering="geometricPrecision" text-rendering="geometricPrecision" viewBox="0 0 6.827 6.827"><defs><style>.fil1{fill:#fffffe}</style></defs><g id="Layer_x0020_1"><rect width="6.827" height="6.827" fill="#66bb6a" rx=".853" ry=".853"/><g id="_318669144"><path id="_318669576" d="M1.856.983h.733v.236a.22.22 0 0 0 .22.22h1.208a.22.22 0 0 0 .221-.22V.983h.733a.274.274 0 0 1 .275.275v4.44a.274.274 0 0 1-.275.275H1.856A.274.274 0 0 1 1.58 5.7V1.258a.274.274 0 0 1 .275-.275zm1.486 2.271v-.273a.361.361 0 0 1-.187-.11.279.279 0 0 1-.06-.18c0-.072.022-.132.067-.18a.274.274 0 0 1 .18-.084v-.065h.095v.065c.07.008.124.032.165.07.041.04.067.092.078.157l-.165.022c-.01-.052-.036-.087-.078-.105v.255c.104.029.176.065.213.11a.26.26 0 0 1 .057.174.29.29 0 0 1-.071.199.314.314 0 0 1-.2.099v.122h-.094v-.119a.302.302 0 0 1-.183-.084.346.346 0 0 1-.09-.2l.17-.017c.007.034.02.064.04.09.018.025.04.043.063.054zm.177-1.171-.006-.001h-.005l-.006-.001h-.005L3.49 2.08h-.005l-.006-.001h-.005l-.006-.001h-.017l-.005-.001h-.034v.1H3.463l.005.001h.01l.004.001h.005l.005.001h.005l.005.001h.005l.012-.098zm-.17-.004h-.014l-.005.001h-.006l-.005.001h-.005l-.006.002h-.011l-.005.002h-.006l-.005.001-.005.001-.006.001h-.005l-.006.002h-.005l-.005.002h-.004l.02.098h.003l.004-.001h.005l.005-.002h.004l.005-.001.005-.001h.005l.005-.001.004-.001h.005l.005-.001h.005l.005-.001h.005l.004-.001h.005l.005-.001H3.358l-.008-.1zm-.206.04-.004.001-.005.002-.005.002-.005.001-.005.002-.005.002-.005.002-.005.002-.005.002-.005.002-.005.002-.004.002-.005.002-.005.002-.005.002-.005.002-.005.002-.005.002-.004.002-.005.003h-.002l.043.09h.001l.004-.002.004-.002.005-.002.004-.002.004-.002.005-.001.004-.002.004-.002.005-.002.004-.002.004-.001.005-.002.004-.002.005-.001.004-.002.004-.001.005-.002.004-.001.005-.002.003-.001-.031-.095zm-.192.09-.002.001-.005.003-.004.003-.004.003-.005.003-.004.003-.004.003-.005.003-.004.003-.004.003-.004.003-.005.003-.004.003-.004.003-.004.003-.004.003-.005.004-.004.003-.004.003-.004.003-.003.003.063.077.003-.002.003-.003.004-.003.004-.003.003-.002.004-.003.004-.003.003-.003.004-.002.004-.003.004-.003.003-.003.004-.002.004-.003.004-.002.004-.003.004-.003.003-.002.004-.003.004-.002.003-.002-.054-.084zm-.164.133-.003.004-.004.004-.003.004-.004.003-.004.004-.003.004-.004.004-.003.004-.003.004-.004.004-.003.004-.004.004-.003.004-.003.004-.003.004-.004.004-.003.004-.003.004-.003.004-.004.004v.002l.08.06v-.001l.003-.004.003-.004.003-.003.002-.004.003-.004.003-.003.003-.004.003-.003.003-.004.003-.003.003-.004.003-.003.003-.004.003-.003.003-.004.003-.003.004-.003.003-.004.003-.003.003-.003-.072-.07zm-.127.169-.001.002-.003.005-.002.004-.003.005-.002.004-.003.005-.002.005-.003.004-.002.005-.003.005-.002.004-.002.005-.003.005-.002.005-.002.004-.002.005-.003.005-.002.005-.002.005-.002.005-.001.003.092.039v-.003l.003-.004.001-.005.002-.004.002-.004.002-.004.002-.004.002-.005.002-.004.002-.004.002-.004.003-.004.002-.005.002-.004.002-.004.002-.004.002-.004.003-.004.002-.004.002-.004.002-.002-.087-.05zm-.083.195v.002l-.002.005-.001.005-.002.006-.001.005-.001.005-.002.005-.001.005-.001.006-.001.005-.002.005v.006l-.002.005v.005l-.002.005v.006l-.002.005v.006l-.002.005v.006l.098.015v-.005l.002-.005V2.81l.001-.005.001-.005.001-.004.001-.005.001-.005.001-.005.001-.004.001-.005.001-.004.001-.005.001-.005.002-.004v-.005l.002-.005.001-.004.002-.005v-.002l-.096-.027zm-.033.208v.082l.001.006v.005l.001.006v.007l.1-.009V3l-.001-.004V2.98l-.001-.005v-.059l-.1-.003zm.018.21v.003l.001.005.002.005v.005l.002.006.001.005.002.005v.005l.002.006.002.005.001.005.002.005.001.005.001.005.002.006.002.005.001.005.002.005.002.005.001.005v.002l.095-.033v-.001l-.002-.004-.001-.005-.002-.004-.001-.005-.001-.004-.002-.005-.001-.005-.001-.004-.002-.005-.001-.004-.001-.005-.001-.004-.002-.005v-.005l-.002-.004V3.12l-.002-.005-.001-.004-.001-.005v-.002l-.098.02zm.068.2.002.004.002.005.002.004.003.005.002.005.003.004.002.005.003.005.002.004.003.005.002.005.003.004.002.005.003.004.003.005.002.004.003.005.003.004.003.005.003.004.001.002.084-.054-.001-.002-.003-.004-.002-.004-.003-.004-.002-.004-.003-.004-.002-.004-.002-.004-.003-.004-.002-.004-.002-.004-.003-.004-.002-.004-.002-.004-.002-.004L2.73 3.3l-.002-.004-.003-.005-.002-.004-.002-.004-.001-.003-.09.044zm.115.178v.001l.004.004.003.004.004.004.003.004.003.004.004.004.003.004.004.004.004.004.003.003.004.004.003.004.004.004.004.003.003.004.004.004.004.003.003.004.004.004.004.003.068-.072-.003-.004L2.88 3.5l-.004-.003-.003-.003-.003-.003-.003-.004-.004-.003-.003-.003-.003-.004-.003-.003-.003-.003-.004-.004-.003-.003-.003-.004-.003-.003-.003-.004-.003-.003-.003-.004-.003-.003-.003-.004-.077.063zm.154.145.002.002.005.003.004.003.004.003.004.003.005.003.004.003.004.003.005.003.004.003.004.003.005.003.004.002.005.003.004.003.005.003.004.002.005.003.004.003.005.002.002.002.05-.087-.003-.002-.004-.002-.004-.002-.004-.003-.004-.002-.004-.002-.004-.003-.004-.002-.004-.003-.004-.002-.004-.003-.003-.002-.004-.003-.004-.002-.004-.003-.004-.003-.004-.002-.003-.003-.004-.003-.004-.002-.003-.002-.058.08zm.184.104h.002l.004.003.005.002.005.001.005.002.005.002.005.002.005.002.005.002.005.001.005.002.005.002.005.002.006.001.005.002.005.001.005.002.005.001.005.002.005.001.003.001.026-.096h-.002l-.004-.002-.005-.001-.005-.002-.004-.001-.005-.002-.004-.001-.005-.001-.004-.002-.005-.001-.004-.002-.005-.001-.004-.002-.004-.002-.005-.001-.004-.002-.005-.002-.004-.001-.004-.002-.005-.002h-.001l-.038.092zm.204.056h.005l.005.001h.006l.005.002h.011l.005.001.006.001h.011l.005.001h.006l.006.001h.011l.005.001H3.392l.002-.1h-.035l-.005-.001h-.005l-.005-.001H3.335l-.005-.001-.005-.001H3.32l-.005-.001H3.31l-.004-.001-.005-.001-.014.099zm.211.005h.004l.006-.001h.005l.006-.001.005-.001h.005l.006-.002h.005l.006-.001h.005l.006-.002h.005l.005-.002h.006l.005-.002h.005l.006-.002h.005l.005-.002h.003l-.021-.098h-.003l-.005.001-.004.001-.005.001-.005.001-.005.001-.004.001h-.005l-.005.002h-.005l-.004.001h-.005l-.005.002h-.01l-.004.001-.005.001h-.005l-.005.001h-.004l.01.1zm.206-.046.003-.001.005-.002.005-.002.005-.002.005-.002.005-.001.005-.002.005-.002.005-.002.005-.002.005-.003.005-.002.004-.002.005-.002.005-.002.005-.002.005-.003.004-.002.005-.002.005-.003h.002l-.045-.09-.001.001-.005.002-.004.002-.004.002-.004.002-.005.002-.004.002-.004.002-.004.002-.005.002-.004.002-.004.001-.005.002-.004.002-.004.002-.005.001-.004.002-.004.002-.005.001-.004.002-.003.001.033.094zm.19-.094.001-.002.005-.003.004-.003.004-.003.005-.003.004-.003.004-.003.004-.003.005-.003.004-.003.004-.003.004-.003.004-.003.004-.004.004-.003.005-.003.004-.003.004-.004.004-.003.004-.003.003-.003-.065-.076-.003.002-.003.003-.004.003-.003.003-.004.003-.004.003-.003.003-.004.003-.004.003-.003.002-.004.003-.004.003-.003.003-.004.002-.004.003-.004.003-.004.002-.003.003-.004.003-.004.002-.002.001.055.084zm.16-.138.003-.003.004-.004.003-.004.004-.004.003-.004.003-.004.004-.004.003-.004.004-.004.003-.004.003-.004.003-.004.004-.004.003-.004.003-.004.003-.004.003-.004.003-.005.004-.004.003-.004v-.002l-.08-.058-.001.002-.003.003-.003.004-.003.004-.002.003-.003.004-.003.004-.003.003-.003.004-.003.004-.003.003-.002.004-.003.003-.003.004-.003.003-.003.004-.003.003-.004.004-.003.003-.003.004-.003.003.074.067zm.123-.171.001-.002.003-.005.002-.005.003-.004.002-.005.002-.005.003-.004.002-.005.002-.005.003-.005.002-.004.002-.005.002-.005.002-.005.003-.005.002-.004.002-.005.002-.005.002-.005.002-.005.001-.003-.093-.037v.003l-.003.004-.001.004-.002.005-.002.004-.002.004-.002.005-.002.004-.002.004-.002.004-.002.005-.002.004-.002.004-.002.004-.002.004-.002.005-.002.004-.002.004-.002.004-.003.004v.002l.087.048zm.078-.197v-.003l.002-.005.001-.005.002-.005v-.006l.002-.005.001-.005.001-.005.001-.006.002-.005v-.005l.002-.006V3.1l.002-.005v-.006l.001-.005.001-.006.001-.005v-.005l.001-.006-.099-.013v.01l-.002.004v.005l-.001.005v.005l-.002.004v.005l-.001.005-.001.005-.001.004-.001.005-.001.005-.001.004-.001.005-.001.005-.002.004v.005l-.002.005v.002l.096.025zm.028-.21V2.907L4.281 2.9V2.89l-.001-.005v-.011l-.001-.006v-.005l-.001-.006v-.005l-.001-.001-.1.011.001.005v.005l.001.005v.005l.001.005v.01l.001.004v.02l.001.005V2.956h.1zm-.023-.21v-.002l-.002-.005v-.005l-.002-.005-.002-.005-.001-.006-.001-.005-.002-.005-.001-.005-.002-.005-.001-.005-.002-.006-.002-.005-.001-.005-.002-.005-.002-.005-.001-.005-.002-.005-.002-.005-.002-.005v-.002l-.094.035v.001l.002.005.002.004.001.005.002.004.001.005.002.004.001.005.002.004.001.005.001.004.002.005.001.004.001.005.002.004v.005l.002.005.001.004.001.005.002.005v.002l.097-.023zm-.073-.198-.001-.003-.003-.004-.002-.005-.003-.005-.002-.004-.003-.005-.003-.004-.002-.005-.003-.004-.002-.005-.003-.005-.003-.004-.003-.004-.002-.005-.003-.004-.003-.005-.003-.004-.003-.005-.003-.004-.002-.004-.002-.003-.083.057.002.002.002.003.003.004.003.004.002.004.003.004.002.004.002.004.003.004.002.004.003.004.002.004.002.004.003.004.002.004.002.004.002.004.003.004.002.004.002.004.001.003.089-.046zm-.119-.174v-.001l-.004-.004-.003-.004-.004-.004-.003-.004-.004-.003-.003-.004-.004-.004-.004-.004-.003-.004-.004-.003-.004-.004-.003-.004-.004-.003-.004-.004-.004-.004-.003-.003-.004-.004-.004-.003-.004-.004-.004-.003-.067.074.004.003.003.003.004.003.003.004.004.003.003.003.003.003.004.003.003.004.003.003.003.003.003.004.004.003.003.003.003.004.003.003.003.003.003.004.003.003.004.004.075-.065zm-.157-.142-.003-.001-.004-.003-.004-.003-.005-.003-.004-.003-.004-.003-.005-.003-.004-.003-.005-.002-.004-.003-.005-.003L3.86 2.2l-.005-.002-.004-.003-.005-.002-.004-.003-.005-.003-.004-.002-.005-.003-.005-.002-.003-.002-.046.089h.002l.004.003.004.002.004.002.005.003.004.002.004.002.004.003.004.002.004.003.004.002.003.002.004.003.004.002.004.003.004.002.004.003.004.003.004.002.003.003.003.001.057-.082zm-.187-.099h-.002l-.005-.002-.005-.002-.005-.002-.005-.002-.005-.001-.005-.002-.005-.002-.005-.001-.005-.002-.005-.002-.005-.001-.005-.002-.005-.001-.006-.002-.005-.001-.005-.002-.005-.001-.005-.001-.006-.002h-.002l-.024.097h.002l.005.001.004.002h.005l.005.002.004.001.005.002h.004l.005.002.004.002.005.001.004.002.005.001.004.002.005.001.004.002.005.001.004.002.005.001.004.002h.002l.035-.093zm-.31-.385a1.195 1.195 0 0 1 1.198 1.198 1.195 1.195 0 0 1-1.199 1.198 1.195 1.195 0 0 1-1.198-1.198 1.195 1.195 0 0 1 1.198-1.198zm.705.492a.995.995 0 0 0-1.412 0 .995.995 0 0 0 0 1.412.995.995 0 0 0 1.412 0 .995.995 0 0 0 0-1.412zm-.777.33a.124.124 0 0 0-.061.043.116.116 0 0 0-.023.07.11.11 0 0 0 .021.064c.014.02.035.036.063.048v-.226zm.095.694a.133.133 0 0 0 .08-.046.128.128 0 0 0 .03-.085.116.116 0 0 0-.025-.075.163.163 0 0 0-.085-.049v.255zM2.16 5.239a.109.109 0 0 0 0 .218h2.505a.109.109 0 0 0 0-.218H2.161zm0-.716a.109.109 0 0 0 0 .218h2.505a.109.109 0 0 0 0-.218H2.161z" class="fil1"/><path id="_318669192" d="M2.81.853a.111.111 0 0 0-.08.033.111.111 0 0 0-.033.08v.253c0 .03.012.058.033.079.021.02.05.033.08.033h1.207c.03 0 .058-.012.08-.033a.111.111 0 0 0 .032-.08V.966a.111.111 0 0 0-.033-.079.111.111 0 0 0-.079-.033H2.81z" class="fil1"/></g></g></svg>