<svg xmlns="http://www.w3.org/2000/svg" viewBox="0 0 64 64"><g id="_13-Garage" data-name="13-Garage"><path d="M40.28,45.67,41,50H23l.72-4.33A2.006,2.006,0,0,1,25.69,44H38.31A2.006,2.006,0,0,1,40.28,45.67Z" style="fill:#a3d4ff"/><rect x="21" y="56" width="4" height="4" style="fill:#7e8596"/><rect x="39" y="56" width="4" height="4" style="fill:#7e8596"/><polygon points="39 56 39 60 25 60 25 56 27 56 37 56 39 56" style="fill:#9c9c9c"/><rect x="27" y="53" width="10" height="3" style="fill:#cfcfcf"/><rect x="27" y="50" width="10" height="3" style="fill:#f7f7f7"/><path d="M27,53v3H20V52a2.006,2.006,0,0,1,2-2h5Z" style="fill:#ffda45"/><path d="M43,56H37V50h5a2.006,2.006,0,0,1,2,2v4Z" style="fill:#ffda45"/><polygon points="53 34 53 38 11 38 11 34 36 34 38 34 40 34 42 34 53 34" style="fill:#4a98f7"/><polygon points="53 30 53 34 42 34 40 34 38 34 36 34 11 34 11 30 53 30" style="fill:#65b1fc"/><path d="M53,28v2H11V28a2.006,2.006,0,0,1,2-2H51A2.006,2.006,0,0,1,53,28Z" style="fill:#a3d4ff"/><polygon points="60 23.45 32 9 4 23.45 1 25 1 20 32 4 63 20 63 25 60 23.45" style="fill:#ff7045"/><polygon points="32 4 1 20 1 22 32 6 63 22 63 20 32 4" style="fill:#ff936b"/><path d="M44,56V52a2.006,2.006,0,0,0-2-2H41l-.72-4.33A2.006,2.006,0,0,0,38.31,44H25.69a2.006,2.006,0,0,0-1.97,1.67L23,50H22a2.006,2.006,0,0,0-2,2v4h1v4H11V38H53V60H43V56Z" style="fill:#9c9c9c"/><rect x="53" y="54" width="7" height="6" style="fill:#f2bb88"/><rect x="4" y="54" width="7" height="6" style="fill:#f2bb88"/><path d="M60,23.45V54H53V28a2.006,2.006,0,0,0-2-2H13a2.006,2.006,0,0,0-2,2V54H4V23.45L32,9Z" style="fill:#fff2de"/><polygon points="32 9 4 23.45 4 26.45 32 12 60 26.45 60 23.45 32 9" style="fill:#f2d1a5"/><path d="M63.458,19.111l-31-16a1,1,0,0,0-.916,0l-31,16A1,1,0,0,0,0,20v5a1,1,0,0,0,1.458.889L3,25.093V60a1,1,0,0,0,1,1H60a1,1,0,0,0,1-1V25.093l1.542.8A1,1,0,0,0,64,25V20A1,1,0,0,0,63.458,19.111ZM5,55h5v4H5ZM52,29H12V28a1,1,0,0,1,1-1H51a1,1,0,0,1,1,1ZM12,35H36V33H12V31H52v2H42v2H52v2H12ZM22,59V57h2v2Zm21-4H38V51h4a1,1,0,0,1,1,1Zm-7-4v1H28V51Zm-8,3h8v1H28Zm10,3v2H26V57ZM24.18,49l.528-3.165A1,1,0,0,1,25.694,45H38.306a1,1,0,0,1,.986.835L39.82,49ZM26,51v4H21V52a1,1,0,0,1,1-1Zm14,8V57h2v2Zm4,0V57a1,1,0,0,0,1-1V52a3,3,0,0,0-3-3h-.153l-.582-3.493A2.991,2.991,0,0,0,38.306,43H25.694a2.991,2.991,0,0,0-2.959,2.507L22.153,49H22a3,3,0,0,0-3,3v4a1,1,0,0,0,1,1v2H12V39H52V59Zm10,0V55h5v4Zm5-6H54V28a3,3,0,0,0-3-3H13a3,3,0,0,0-3,3V53H5V24.061L32,10.125,59,24.061Zm3-29.642L32.458,8.111a1,1,0,0,0-.916,0L2,23.358V20.609L32,5.125,62,20.609Z"/><rect x="38" y="33" width="2" height="2"/><rect x="22" y="52" width="2" height="2"/><rect x="40" y="52" width="2" height="2"/></g></svg>