<svg xmlns="http://www.w3.org/2000/svg" xmlns:xlink="http://www.w3.org/1999/xlink" version="1.1" x="0px" y="0px" viewBox="0 0 100 125" enable-background="new 0 0 100 100" xml:space="preserve"><path fill="#11AA66" d="M98.7,84.5L65.3,14.4L65,13.7l-0.7-0.4c-0.3-0.2-1.2-0.6-2.7-0.6c-3.9,0-11.3,2.5-24.5,14.6l-0.2,0.2  C36.8,27.7,20.3,45.9,7.7,45l-5.3-0.4l25.2,32.5c0.2,0.2,2.2,1.8,6,1.8c6.2,0,13.3-4.2,21.2-12.6c8.1-8.6,14.9-10.4,19.2-10.4  c3.7,0,6,1.4,6,1.4l0.7,0.5l13.7,28.8L98.7,84.5z M58.8,36.9L54,28.8l-10.7,6.3l-2.7-4.5c3.8-3.5,7.1-6,9.8-7.9l4,6.8l9.9-5.8  l3.6,7.9L58.8,36.9z M31.4,65.2l-4.4-7.4l10.7-6.3l4.4,7.4L31.4,65.2z M32.5,42.3l-10.7,6.3l-1.3-2.2c3.8-1.9,7.3-4.4,10.4-6.9  L32.5,42.3z M21.9,49.6l4.6,7.8l-5.6,3.3l-5.6-7.2L21.9,49.6z M37.2,50.1l-4.4-7.4l10.7-6.3l4.4,7.4L37.2,50.1z M30.8,73.6l-3.4-4.4  l4.4-2.6l4.3,7.3c-1,0.3-1.8,0.3-2.5,0.3C32,74.2,31.1,73.7,30.8,73.6z M51.3,63.1c-1.5,1.6-2.9,2.9-4.2,4.1l-4.7-7.9l10.7-6.3  l3.2,5.4C54.7,59.7,53,61.3,51.3,63.1z M74,51.1c-1.8,0-3.9,0.3-6.4,1l-4-6.8l-10.7,6.3l-4.4-7.4l10.7-6.3L64,46l8.2-4.8l4.6,10.2  C76,51.2,75,51.1,74,51.1z"/></svg>