<svg xmlns="http://www.w3.org/2000/svg" xml:space="preserve" width="2048" height="2048"><defs><style>.fil1{fill:#7eb6b1}</style></defs><g id="Layer_x0020_1"><g id="_359468080"><path fill="#b2dfdb" d="M400 256h1184v1536H368V256z"/><path d="M592 1440h768v64H592zM592 1248h768v64H592zM592 1056h768v64H592zM592 864h768v64H592zM592 672h768v64H592zM592 480h768v64H592z" class="fil1"/><path fill="#0091ea" d="M1680 902v642h-192V902z"/><path fill="#0080cf" d="m1680 1542-3 13-65 150-28 69-30-69-63-150-3-13z"/><path fill="#0277bd" d="M1520 646h160v256h-192V646z"/><path fill="#007dcf" d="M1680 902v642h-96V902z"/><path fill="#0072bd" d="m1680 1542-3 13-65 150-28 69v-232z"/><path fill="#026cb2" d="M1584 646h96v256h-96z"/><path fill="#212121" d="M1574 1750h21v31c0 6-5 10-10 10-6 0-10-5-10-10v-31z"/><path fill="#056eaf" d="M1571 1030h25v384h-25z"/></g><path fill="none" d="M0 0h2048v2048H0z"/></g></svg>